<?xml version="1.0" encoding="utf-8"?>
<!-- Generator: Adobe Illustrator 23.0.6, SVG Export Plug-In . SVG Version: 6.00 Build 0)  -->
<svg version="1.1" id="Capa_1" xmlns="http://www.w3.org/2000/svg" xmlns:xlink="http://www.w3.org/1999/xlink" x="0px" y="0px"
	 viewBox="0 0 435.46 595.28" style="enable-background:new 0 0 435.46 595.28;" xml:space="preserve">
<style type="text/css">
	.st0{fill:#4EB58B;}
	.st1{fill:#FFFFFF;}
</style>
<g>
	<g>
		<g>
			<g>
				<path class="st0" d="M218.63,4.73C101.65,4.73,6.47,99.9,6.47,216.89c0,145.18,189.86,358.32,197.95,367.32
					c7.59,8.46,20.85,8.44,28.43,0c8.08-9,197.95-222.14,197.95-367.32C430.79,99.9,335.62,4.73,218.63,4.73z"/>
			</g>
		</g>
	</g>
	<g>
		<g>
			<g>
				<path class="st1" d="M281.11,228.38c-17.55-21.2-39.74-32.87-62.48-32.87s-44.93,11.67-62.48,32.87
					c-15.78,19.05-25.2,43.06-25.2,64.23c0,10.28,3.14,18.11,9.34,23.28c6.12,5.1,14.2,6.82,23.21,6.82c9.59,0,20.24-1.95,30.7-3.87
					c9.14-1.68,17.78-3.26,24.43-3.26c5.74,0,13.84,1.5,22.42,3.09c20.04,3.72,42.75,7.94,55.86-2.97c6.24-5.19,9.4-12.95,9.4-23.09
					C306.31,271.44,296.89,247.43,281.11,228.38z"/>
			</g>
		</g>
		<g>
			<g>
				<path class="st1" d="M282.91,113.28c-6.42-9.47-15.62-14.9-25.23-14.9c-9.61,0-18.81,5.43-25.23,14.9
					c-5.9,8.7-9.15,20.12-9.15,32.17c0,12.04,3.25,23.47,9.15,32.17c6.42,9.47,15.62,14.9,25.23,14.9c9.61,0,18.81-5.43,25.23-14.9
					c5.9-8.7,9.15-20.12,9.15-32.17C292.06,133.41,288.81,121.98,282.91,113.28z"/>
			</g>
		</g>
		<g>
			<g>
				<path class="st1" d="M204.83,113.28c-6.42-9.47-15.62-14.9-25.23-14.9c-9.61,0-18.81,5.43-25.23,14.9
					c-5.9,8.7-9.15,20.12-9.15,32.17s3.25,23.47,9.15,32.17c6.42,9.47,15.62,14.9,25.23,14.9c9.61,0,18.81-5.43,25.23-14.9
					c5.9-8.7,9.15-20.12,9.15-32.17C213.97,133.41,210.73,121.98,204.83,113.28z"/>
			</g>
		</g>
		<g>
			<g>
				<path class="st1" d="M347.57,187.17c-2.59-8.81-8.14-15.21-15.63-18.02c-6.03-2.26-12.83-1.88-19.15,1.08
					c-8.72,4.08-15.84,12.5-19.55,23.11c-3.03,8.67-3.41,17.83-1.06,25.8c2.59,8.81,8.14,15.21,15.63,18.02
					c2.59,0.97,5.33,1.46,8.1,1.46c3.68,0,7.44-0.85,11.05-2.54c8.72-4.08,15.84-12.5,19.55-23.11v0
					C349.54,204.3,349.91,195.14,347.57,187.17z"/>
			</g>
		</g>
		<g>
			<g>
				<path class="st1" d="M144.02,193.34c-3.71-10.61-10.83-19.03-19.55-23.11c-6.33-2.96-13.13-3.34-19.15-1.08
					c-7.49,2.81-13.04,9.21-15.63,18.02c-2.34,7.97-1.97,17.13,1.06,25.8v0c3.71,10.61,10.83,19.03,19.55,23.11
					c3.61,1.69,7.37,2.54,11.05,2.54c2.78,0,5.51-0.48,8.1-1.46c7.49-2.81,13.04-9.21,15.63-18.02
					C147.43,211.17,147.05,202,144.02,193.34z"/>
			</g>
		</g>
	</g>
</g>
</svg>
